<svg xmlns="http://www.w3.org/2000/svg" width="77.529" height="76.696" viewBox="0 0 77.529 76.696">
  <g id="Boom_Lifts" data-name="Boom Lifts" transform="translate(10333 740)">
    <rect id="Rectangle_1961" data-name="Rectangle 1961" width="77.529" height="76.696" transform="translate(-10333 -740)" fill="none"/>
    <path id="Boom_Lift" data-name="Boom Lift" d="M31.951,75.4a7.683,7.683,0,0,1-4.087-4.064A7.605,7.605,0,0,1,29.51,62.96a7.7,7.7,0,0,1,12.506,2.428,7.605,7.605,0,0,1-1.646,8.374A7.72,7.72,0,0,1,31.951,75.4Zm1.12-11.436A4.8,4.8,0,0,0,30.518,66.5a4.755,4.755,0,0,0,1.028,5.234,4.812,4.812,0,0,0,6.788,0,4.752,4.752,0,0,0,0-6.751,4.824,4.824,0,0,0-5.262-1.023ZM4.69,75.4A7.678,7.678,0,0,1,.6,71.335,7.608,7.608,0,0,1,2.249,62.96a7.7,7.7,0,0,1,10.86,0A7.657,7.657,0,0,1,4.69,75.4ZM2.88,68.361a4.8,4.8,0,1,0,4.8-4.774A4.792,4.792,0,0,0,2.88,68.361Zm28.988,0a3.072,3.072,0,1,1,3.072,3.055A3.067,3.067,0,0,1,31.868,68.362Zm-27.261,0a3.072,3.072,0,1,1,3.072,3.055A3.064,3.064,0,0,1,4.607,68.362Zm11.37,2.044a8.9,8.9,0,0,0-3.83-9.349l-.628-.234h19.4a8.485,8.485,0,0,0-4.332,9.583c-.992.02-2.5.026-4.072.026C19.369,70.433,15.977,70.406,15.977,70.406Zm-5.418-11.02H2.5A1.725,1.725,0,0,1,.768,57.668V46.02A1.725,1.725,0,0,1,2.5,44.3l8.063.005v15.08h0Zm1.92,0V44.309l18.258.013h0c.108.076,2.664,1.895,4.861,3.633,2.389,1.908,3.6,2.969,4.189,3.524a4.331,4.331,0,0,1,.72.755v5.433a1.725,1.725,0,0,1-1.728,1.718ZM31.062,43.431l-1.256.087,5.036-6.383L4.639,16.4c-.137.014-.277.021-.415.021a4.211,4.211,0,0,1-2.987-1.23,4.187,4.187,0,0,1,0-5.942A4.246,4.246,0,0,1,6,8.408l28.147.718v1.049l12.313,7.553V14.322h3.648V0H67V18.86a8.447,8.447,0,0,1-16.7,1.794v3.216H46.459V22.076L34.305,14.522v.693l-18.562.671L43.368,31.279a4.231,4.231,0,0,1,2.214,1.485,4.184,4.184,0,0,1,.135,4.941,4.216,4.216,0,0,1-1.9,1.52l-.733.524-4.832,9.32Zm9.409-9.86a2.474,2.474,0,0,0,0,3.511,2.483,2.483,0,1,0,0-3.511ZM2.459,10.466a2.473,2.473,0,0,0,0,3.51,2.505,2.505,0,0,0,3.53,0,2.473,2.473,0,0,0,0-3.51,2.505,2.505,0,0,0-3.53,0ZM60.089,13.94h4.224V2.865H60.089Zm-6.911,0H57.4V2.865H53.178ZM40.507,35.327a1.728,1.728,0,1,1,1.728,1.718A1.725,1.725,0,0,1,40.507,35.327ZM2.5,12.221a1.728,1.728,0,1,1,1.728,1.718A1.725,1.725,0,0,1,2.5,12.221Z" transform="translate(-10328 -740)" fill="#514b4d"/>
  </g>
</svg>
