<svg xmlns="http://www.w3.org/2000/svg" width="100" height="100" viewBox="0 0 100 100">
  <g id="Compact_Lifts_Drk" data-name="Compact Lifts Drk" transform="translate(-6278 -6158)">
    <rect id="Rectangle_491" data-name="Rectangle 491" width="100" height="100" transform="translate(6278 6158)" fill="none"/>
    <path id="Path_7789" data-name="Path 7789" d="M8.3,100H0v-3.98H2.9L9.847,83l8.9,1.821V83.675h3.71V75.446h4.452l3.1-8.027h9.646V56.9H41.01V43.742L25.964,24.255H3.416a.991.991,0,0,1-.99-.99v-1.98a.743.743,0,0,1,.742-.743h.99V3.217A3.218,3.218,0,0,1,7.376,0H20.742a1.239,1.239,0,0,1,1.238,1.238v7.92h3.96a1.735,1.735,0,0,1,1.733,1.733v7.956l.05-.129,33.39,40h2.7V69.375a5.449,5.449,0,0,1-.481,1.88A3.638,3.638,0,0,1,62.3,72.591a3.387,3.387,0,0,1-1.932.7c-.975.06-3.158.09-6.488.09-5.705,0-12.8-.089-12.872-.09L40.2,75.446h3.44v8.229h3.778v1.147L56.053,83l7.218,13.018h2.7V100H57.74v-3.98h2.968L55.716,88.06l-8.3,2.361V91.77H41.284v.054a4.455,4.455,0,0,1-4.455,4.455H29.157A4.455,4.455,0,0,1,24.7,91.824V91.77H18.751V90.421l-8.5-2.361L5.261,96.019H8.3V100ZM43.315,46.576V56.794h1.437V67.411h6.825l3.353-4.789c.005-.008.513-.843,0-1.317S43.426,46.719,43.315,46.576ZM6.634,14.108V20.79H19.5V14.108Zm.99-11.633a.991.991,0,0,0-.99.99v8.167H19.5V2.475Z" transform="translate(6295.5 6158)" fill="#c8c8c8"/>
  </g>
</svg>
