<svg id="Compact_" data-name="Compact " xmlns="http://www.w3.org/2000/svg" width="76.695" height="77.102" viewBox="0 0 76.695 77.102">
  <rect id="Rectangle_1959" data-name="Rectangle 1959" width="76.696" height="76.696" transform="translate(0 0.203)" fill="none"/>
  <path id="Path_52478" data-name="Path 52478" d="M6.4,77.1H0V74.033H2.235L7.592,64l6.865,1.4v-.884h2.86V58.17H20.75l2.392-6.189H30.58V43.868h1.04V33.726L20.019,18.7H2.634a.764.764,0,0,1-.763-.763V16.412a.573.573,0,0,1,.572-.573h.763V2.481A2.481,2.481,0,0,1,5.687,0h10.3a.955.955,0,0,1,.954.954V7.061H20A1.337,1.337,0,0,1,21.335,8.4v6.135l.039-.1L47.119,45.273H49.2V53.49a4.2,4.2,0,0,1-.371,1.45,2.8,2.8,0,0,1-.792,1.03,2.612,2.612,0,0,1-1.49.537c-.752.046-2.435.069-5,.069-4.4,0-9.87-.069-9.924-.069L31,58.17h2.652v6.345h2.913V65.4L43.218,64l5.565,10.038h2.08V77.1H44.518V74.033h2.288L42.958,67.9l-6.4,1.82v1.04h-4.73V70.8A3.435,3.435,0,0,1,28.4,74.234H22.48A3.435,3.435,0,0,1,19.045,70.8v-.042H14.457v-1.04L7.905,67.9,4.057,74.033H6.4V77.1Zm27-41.19V43.79H34.5v8.186h5.262l2.585-3.693c0-.006.4-.65,0-1.016S33.483,36.021,33.4,35.911ZM5.115,10.877V16.03h9.923V10.877Zm.763-8.969a.764.764,0,0,0-.763.763v6.3h9.923V1.908Z" transform="translate(12.791 0)" fill="#514b4d"/>
</svg>
