<svg xmlns="http://www.w3.org/2000/svg" width="100" height="100" viewBox="0 0 100 100">
  <g id="Cranes_Drk" data-name="Cranes Drk" transform="translate(-6159.566 -6034.566)">
    <rect id="Rectangle_485" data-name="Rectangle 485" width="100" height="100" transform="translate(6159.566 6034.566)" fill="none"/>
    <g id="Group_4717" data-name="Group 4717" transform="translate(6160 6035)">
      <g id="Group_4709" data-name="Group 4709" transform="translate(0 0)">
        <path id="Path_7751" data-name="Path 7751" d="M166.806,62.965l20.215,24.258s.362-.318,1.087.185a8.716,8.716,0,0,1,1.811,1.83q11.425,13.579,22.774,27.222c.431.516.959.951,1.8,1.779l4.574-18.224c-.348-.105-.658-.193-.965-.293a3.848,3.848,0,0,1-2.806-5.07,2.974,2.974,0,0,1,2.6-2.274,14.949,14.949,0,0,1,1.737-.064q12.946-.005,25.891,0a10.272,10.272,0,0,1,1.734.089,2.707,2.707,0,0,1,2.293,2.52c.336,3.027-.2,3.85-3.458,5.079v36.517a19.48,19.48,0,0,1-2.43.343c-3.336.035-6.672.015-10.008.015h-2.288v2.545c.547.046,1.1.131,1.655.133,3.916.011,7.833,0,11.749.007,5.314.008,9.153,3.027,9.82,8.225a8.672,8.672,0,0,1-3.882,8.467,8.262,8.262,0,0,1-4.876,1.587q-25.13-.012-50.26.012A9.1,9.1,0,0,1,193.4,140c.692-.19,1.379-.395,2.279-.653l-1.1-2.427H189.9a2.164,2.164,0,0,1-1.266-2.366c.018-2.62.057-5.242-.023-7.859a6.644,6.644,0,0,0-.61-2.7q-12.178-24.3-24.437-48.552c-.215-.426-.495-.819-.985-1.622v28.222l1.6.642c.541,1.852.207,3.777.2,5.727l-1.862.851c.062.234.049.522.181.626.506.4,1.108.68,1.585,1.105a4.851,4.851,0,0,1,1.015,5.229,4.4,4.4,0,0,1-4.49,2.425,4.239,4.239,0,0,1-3.816-3.359c-.228-1-.207-1.915,1.162-2.212,1.74.372.741,3.509,3.2,3.26,1.038-.26,1.988-.739,1.969-2.1-.026-1.8-1.66-1.749-2.953-2.439l-.478-2.608-1.617-.69v-5.7l1.725-.717V72.14c-.182-.143-.285-.292-.4-.306-3.157-.379-3.68-.955-3.686-4.11,0-1.965-.028-3.931.011-5.895.04-2.032,1.037-3.017,3.1-3.079,1.449-.043,2.9-.028,4.351,0,2.285.04,3.226.972,3.384,3.306C166.777,62.271,166.783,62.489,166.806,62.965Zm49.9,59.014h27.014V99.868H221.682c-.2.661-.4,1.271-.561,1.894-1.3,5.188-2.64,10.368-3.869,15.573A40.263,40.263,0,0,0,216.709,121.979ZM166.992,66.548c-.581,1.745.471,2.645,1.113,3.625q13.815,21.1,27.686,42.162c1.189,1.808,2.4,3.6,3.524,5.288h8.931c-1.746-2.11-3.3-4-4.868-5.882q-8.3-9.945-16.611-19.878a4.409,4.409,0,0,1-1.405-2.737c0-.1.113-.248.14-.388Zm53.58,87.942v.005q5.435,0,10.871,0c3.7,0,7.393.039,11.088-.027a5.764,5.764,0,0,0-.407-11.52c-6.885-.025-13.769-.01-20.654-.009-7.464,0-14.929-.011-22.393.017a5.679,5.679,0,0,0-5.409,3.641A5.821,5.821,0,0,0,195.112,153a5.574,5.574,0,0,0,4.153,1.5C206.368,154.471,213.47,154.49,220.572,154.49Z" transform="translate(-155.903 -58.724)" fill="#c8c8c8"/>
        <path id="Path_7752" data-name="Path 7752" d="M529.072,744.855c2.335-2.906,2.279-5.694-.02-8.617h13.484c-2.323,3.619-2.28,4.691-.284,8.462C540.679,745.119,532.878,745.232,529.072,744.855Z" transform="translate(-481.86 -650.553)" fill="#c8c8c8"/>
        <path id="Path_7753" data-name="Path 7753" d="M700.951,735.883h13.51c-2.427,2.887-2.5,5.694-.267,8.486-1.67.447-11.1.493-13.111.093C703.182,740.8,703.179,739.547,700.951,735.883Z" transform="translate(-632.019 -650.243)" fill="#c8c8c8"/>
        <path id="Path_7755" data-name="Path 7755" d="M807.992,744.159a4.4,4.4,0,0,1-4.606-4.449,4.514,4.514,0,0,1,9.028.033A4.369,4.369,0,0,1,807.992,744.159Z" transform="translate(-721.498 -649.699)" fill="#c8c8c8"/>
        <path id="Path_7772" data-name="Path 7772" d="M807.992,744.159a4.4,4.4,0,0,1-4.606-4.449,4.514,4.514,0,0,1,9.028.033A4.369,4.369,0,0,1,807.992,744.159Z" transform="translate(-743.2 -649.699)" fill="#c8c8c8"/>
        <path id="Path_7773" data-name="Path 7773" d="M807.992,744.159a4.4,4.4,0,0,1-4.606-4.449,4.514,4.514,0,0,1,9.028.033A4.369,4.369,0,0,1,807.992,744.159Z" transform="translate(-764.722 -649.699)" fill="#c8c8c8"/>
      </g>
    </g>
  </g>
</svg>
