<svg id="Cranes" xmlns="http://www.w3.org/2000/svg" width="77.529" height="76.899" viewBox="0 0 77.529 76.899">
  <rect id="Rectangle_1961" data-name="Rectangle 1961" width="77.529" height="76.696" transform="translate(0 0.203)" fill="none"/>
  <g id="Group_6164" data-name="Group 6164" transform="translate(0.811 0)">
    <g id="Group_4709" data-name="Group 4709" transform="translate(0)">
      <path id="Path_7751" data-name="Path 7751" d="M164.326,62,179.941,80.74s.28-.246.84.143a6.733,6.733,0,0,1,1.4,1.414q8.826,10.49,17.593,21.029c.333.4.74.734,1.394,1.375L204.7,90.622c-.269-.081-.509-.149-.745-.226a2.973,2.973,0,0,1-2.167-3.917,2.3,2.3,0,0,1,2.008-1.757,11.552,11.552,0,0,1,1.342-.049q10,0,20,0a7.937,7.937,0,0,1,1.34.069,2.091,2.091,0,0,1,1.771,1.947c.259,2.338-.152,2.974-2.671,3.924v28.209a15.047,15.047,0,0,1-1.878.265c-2.577.027-5.154.011-7.731.011H214.2v1.966c.423.035.851.1,1.279.1,3.025.009,6.051,0,9.076.005,4.1.007,7.07,2.338,7.586,6.354a6.7,6.7,0,0,1-3,6.541,6.383,6.383,0,0,1-3.767,1.226q-19.413-.01-38.826.009a7.032,7.032,0,0,1-1.686-13.8c.534-.146,1.066-.305,1.76-.5l-.848-1.875h-3.609a1.671,1.671,0,0,1-.978-1.828c.014-2.024.044-4.049-.018-6.071a5.133,5.133,0,0,0-.472-2.088q-9.407-18.769-18.878-37.506c-.166-.329-.382-.633-.761-1.253v21.8l1.236.5a15.365,15.365,0,0,1,.153,4.424l-1.438.658c.048.181.038.4.14.483.391.307.856.525,1.225.854a3.747,3.747,0,0,1,.784,4.04,3.4,3.4,0,0,1-3.469,1.873,3.275,3.275,0,0,1-2.948-2.6c-.176-.775-.16-1.479.9-1.709,1.344.287.572,2.71,2.472,2.518.8-.2,1.536-.571,1.521-1.623-.02-1.389-1.283-1.351-2.281-1.884l-.369-2.014-1.249-.533v-4.4l1.333-.554V69.088c-.141-.111-.22-.226-.311-.237-2.439-.293-2.843-.738-2.847-3.175,0-1.518-.022-3.036.008-4.554a2.15,2.15,0,0,1,2.4-2.378c1.12-.033,2.241-.022,3.361,0,1.766.031,2.492.751,2.614,2.554C164.3,61.464,164.308,61.633,164.326,62Zm38.55,45.588h20.868V90.507H206.717c-.152.511-.312.982-.433,1.463-1.007,4.007-2.039,8.009-2.989,12.03A31.1,31.1,0,0,0,202.875,107.589ZM164.469,64.768c-.449,1.348.364,2.043.86,2.8q10.672,16.3,21.387,32.57c.918,1.4,1.854,2.783,2.722,4.085h6.9c-1.348-1.63-2.549-3.092-3.76-4.544Q186.166,92,179.745,84.323a3.406,3.406,0,0,1-1.086-2.115c0-.074.087-.192.108-.3ZM205.86,132.7v0q4.2,0,8.4,0c2.855,0,5.711.03,8.565-.021a4.452,4.452,0,0,0-.314-8.9c-5.318-.019-10.637-.008-15.955-.007-5.766,0-11.533-.008-17.3.013a4.387,4.387,0,0,0-4.179,2.813,4.5,4.5,0,0,0,1.117,4.949,4.306,4.306,0,0,0,3.208,1.16C194.887,132.689,200.373,132.7,205.86,132.7Z" transform="translate(-155.903 -58.724)" fill="#514b4d"/>
      <path id="Path_7752" data-name="Path 7752" d="M529.068,742.895c1.8-2.245,1.761-4.4-.016-6.657h10.416c-1.794,2.8-1.761,3.623-.219,6.537A53.728,53.728,0,0,1,529.068,742.895Z" transform="translate(-492.596 -670.046)" fill="#514b4d"/>
      <path id="Path_7753" data-name="Path 7753" d="M700.951,735.883h10.436c-1.875,2.23-1.932,4.4-.207,6.555a52.235,52.235,0,0,1-10.128.072C702.675,739.685,702.672,738.713,700.951,735.883Z" transform="translate(-647.701 -669.726)" fill="#514b4d"/>
      <path id="Path_7755" data-name="Path 7755" d="M806.944,742.134a3.4,3.4,0,0,1-3.558-3.437,3.487,3.487,0,0,1,6.974.025A3.375,3.375,0,0,1,806.944,742.134Z" transform="translate(-740.128 -669.164)" fill="#514b4d"/>
      <path id="Path_7772" data-name="Path 7772" d="M806.944,742.134a3.4,3.4,0,0,1-3.558-3.437,3.487,3.487,0,0,1,6.974.025A3.375,3.375,0,0,1,806.944,742.134Z" transform="translate(-756.893 -669.164)" fill="#514b4d"/>
      <path id="Path_7773" data-name="Path 7773" d="M806.944,742.134a3.4,3.4,0,0,1-3.558-3.437,3.487,3.487,0,0,1,6.974.025A3.375,3.375,0,0,1,806.944,742.134Z" transform="translate(-773.518 -669.164)" fill="#514b4d"/>
    </g>
  </g>
</svg>
