<svg id="_85x" data-name="85x" xmlns="http://www.w3.org/2000/svg" width="85.168" height="42.228" viewBox="0 0 85.168 42.228">
  <g id="Group_4711" data-name="Group 4711" transform="translate(0 0)">
    <path id="Path_7757" data-name="Path 7757" d="M88.417,218.43c-3.1-1.97-5.341-1.845-8.263.34a6.834,6.834,0,0,0-2.715,4.988c-.053.557-.2,1.106-.31,1.726H64.293c.886-5.074-.52-9.253-4.679-12.076-4.193-2.846-8.521-2.368-12.772.41l-5.281-11.562c-.363.594-.642.994-.864,1.425-1.221,2.368-2.368,4.777-3.665,7.1a7.257,7.257,0,0,0-.893,4.119c.153,2.774.217,5.556.23,8.335a3.181,3.181,0,0,0,.973,2.467c.612.6,1.29,1.241.729,2.467a6.9,6.9,0,0,1-1.489-.258c-2.676-1.061-5.422-2-7.974-3.312-2.621-1.352-3.062-3.048-2.153-5.951a11.038,11.038,0,0,1,4.457-5.687,2.822,2.822,0,0,0,1.228-1.815q1.906-8.24,3.952-16.447a11.075,11.075,0,0,1,1.382-3.225,3.388,3.388,0,0,1,4.084-1.541,4.373,4.373,0,0,1,3.384,3.355,7.984,7.984,0,0,0,.924,2.369c1.57,2.46,3.227,4.862,4.857,7.282.16.237.362.444.709.863l.923-7.275c-.372-.134-.984-.385-.984-.385a1.676,1.676,0,0,1-.411-1.575c.07-.428,1.029-1.227,1.029-1.227s.5-.031.749-.031q9.74,0,19.481-.009c.944,0,1.764.14,1.921,1.267.145,1.038-.363,1.668-1.527,1.851l2.886,11.1h1.264a2.734,2.734,0,0,0,.17-.625c.021-1.956.022-3.912.038-5.869.021-2.751.67-3.514,3.606-4.12l.684,1.875-1.892.96v7.915l3.454-.325-.252-1.427.251-.266c4.323,2.866,8.44,6.048,12.81,9.054l1.642-2.768h6.541c.169,1.978.248,3.916.515,5.828.542,3.879,1.683,7.518,4.56,10.347a5.592,5.592,0,0,0,1.307,1.041,1.6,1.6,0,0,1,.823,2.273c-.384.035-.822.11-1.259.111q-6.24.013-12.48,0c-2.369-.007-3.3-.8-3.635-3.2-.3-2.134-.509-4.28-.774-6.555C91.672,221.021,88.889,218.812,88.417,218.43Zm-24.677-21.8a1.7,1.7,0,0,0-.2.536q-.021,6.394-.007,12.788a1.612,1.612,0,0,0,.254.847c1.166,1.728,2.359,3.437,3.453,5.021H73.2c1.151-6.82-1.374-12.9-2.931-19.193Zm-2.519.051H54.647l-1.5,11.6h8.071Zm-17.868-2.453a2.44,2.44,0,0,0-2.47-2.669,2.6,2.6,0,0,0-2.62,2.588,2.672,2.672,0,0,0,2.469,2.608A2.472,2.472,0,0,0,43.354,194.231Zm45.893,17.6.21-.391-4.788-3.462-.377.21c.108.405.093,1.041.344,1.179C86.16,210.205,87.383,211.742,89.247,211.831Zm1.929.806-.333.39c1.044,1.355,2.67,1.89,3.985,2.863l.265-.362Z" transform="translate(-26.024 -189.76)" fill="#514b4d"/>
    <path id="Path_7758" data-name="Path 7758" d="M249.585,468.3c1.521.885,2.24.825,3.117-1.1h4.206c1.075,2.093,1.494,1.858,3.14,1.146.852.839,1.794,1.7,2.64,2.65a1.217,1.217,0,0,1,.086,1.1,1.221,1.221,0,0,0,.732,1.93,1.416,1.416,0,0,1,.962,1.562q-.011,1,0,2.005a1.37,1.37,0,0,1-.973,1.535,1.241,1.241,0,0,0-.742,1.934,1.409,1.409,0,0,1-.159,1.219c-.713.938-1.54,1.79-2.2,2.532-2.428-.692-2.5-.664-3.5,1.174h-3.96l-1.744-1.851-1.644.731c-.84-.829-1.735-1.607-2.482-2.505a1.763,1.763,0,0,1-.184-1.389,1.4,1.4,0,0,0-.9-1.94,1.464,1.464,0,0,1-.77-.977,12.022,12.022,0,0,1,.009-2.92,1.757,1.757,0,0,1,.905-1.057c.772-.4,1.125-1.038.81-1.719a1.511,1.511,0,0,1,.524-2.007C248.177,469.7,248.857,469.012,249.585,468.3Zm10.211,8.347a4.938,4.938,0,0,0-5.023-5.089,5.11,5.11,0,0,0-5.055,4.981,5.177,5.177,0,0,0,5.1,5.113A5,5,0,0,0,259.8,476.652Z" transform="translate(-227.085 -443.765)" fill="#514b4d"/>
    <path id="Path_7760" data-name="Path 7760" d="M185.5,223.293a1.667,1.667,0,0,1,1.594-1.72,1.707,1.707,0,0,1,1.723,1.759,1.728,1.728,0,0,1-1.683,1.656A1.71,1.71,0,0,1,185.5,223.293Z" transform="translate(-172.028 -218.884)" fill="#514b4d"/>
    <path id="Path_7761" data-name="Path 7761" d="M322.641,545.7a3.32,3.32,0,1,1,3.428-3.256A3.312,3.312,0,0,1,322.641,545.7Z" transform="translate(-295.014 -509.549)" fill="#514b4d"/>
    <path id="Subtraction_18" data-name="Subtraction 18" d="M6.59,13.18A6.592,6.592,0,0,1,4.025.518a6.592,6.592,0,0,1,5.13,12.144A6.549,6.549,0,0,1,6.59,13.18Zm0-10.608A4.018,4.018,0,1,0,10.608,6.59,4.023,4.023,0,0,0,6.59,2.572Z" transform="translate(52.408 28.577)" fill="#514b4d"/>
    <ellipse id="Ellipse_1709" data-name="Ellipse 1709" cx="2.619" cy="2.619" rx="2.619" ry="2.619" transform="translate(56.416 32.548)" fill="#514b4d"/>
  </g>
</svg>