<svg xmlns="http://www.w3.org/2000/svg" width="104.726" height="51.926" viewBox="0 0 104.726 51.926">
  <g id="Group_6199" data-name="Group 6199" transform="translate(0 -13.41)">
    <rect id="Rectangle_1958" data-name="Rectangle 1958" width="104.212" height="51.925" transform="translate(0.457 13.41)" fill="none"/>
    <g id="Group_4716" data-name="Group 4716" transform="translate(0 13.41)">
      <g id="Group_4711" data-name="Group 4711" transform="translate(0 0)">
        <path id="Path_7757" data-name="Path 7757" d="M102.746,225.014c-3.811-2.423-6.568-2.269-10.161.418a8.4,8.4,0,0,0-3.338,6.133c-.065.685-.241,1.36-.381,2.122H73.082c1.09-6.239-.639-11.378-5.753-14.849-5.155-3.5-10.478-2.912-15.705.5l-6.494-14.217c-.446.73-.79,1.222-1.063,1.752-1.5,2.911-2.912,5.875-4.506,8.732a8.924,8.924,0,0,0-1.1,5.065c.188,3.411.267,6.832.283,10.248a3.912,3.912,0,0,0,1.2,3.033c.752.732,1.586,1.526.9,3.033a8.488,8.488,0,0,1-1.831-.317c-3.291-1.305-6.667-2.454-9.8-4.072-3.223-1.663-3.765-3.748-2.647-7.317a13.572,13.572,0,0,1,5.48-6.992,3.47,3.47,0,0,0,1.509-2.232q2.344-10.133,4.859-20.224a13.618,13.618,0,0,1,1.7-3.966,4.166,4.166,0,0,1,5.022-1.894,5.377,5.377,0,0,1,4.161,4.125,9.818,9.818,0,0,0,1.136,2.912c1.93,3.024,3.968,5.978,5.973,8.954.2.291.446.546.872,1.061l1.135-8.946c-.458-.165-1.21-.473-1.21-.473a2.06,2.06,0,0,1-.505-1.937c.086-.526,1.265-1.508,1.265-1.508s.609-.039.921-.039q11.977,0,23.954-.011c1.16,0,2.169.173,2.362,1.558.178,1.276-.447,2.051-1.878,2.276l3.549,13.65h1.555a3.362,3.362,0,0,0,.209-.769c.026-2.405.028-4.811.046-7.216.026-3.383.824-4.321,4.434-5.066l.841,2.306-2.326,1.18v9.732l4.248-.4-.31-1.755.309-.327c5.316,3.524,10.378,7.437,15.751,11.133l2.019-3.4h8.044c.207,2.432.3,4.816.633,7.167.666,4.769,2.07,9.245,5.607,12.723a6.876,6.876,0,0,0,1.608,1.281,1.972,1.972,0,0,1,1.012,2.795c-.472.044-1.01.135-1.548.137q-7.673.016-15.346,0c-2.913-.009-4.056-.986-4.469-3.931-.368-2.624-.626-5.263-.952-8.06C106.748,228.2,103.325,225.484,102.746,225.014ZM72.4,198.211a2.1,2.1,0,0,0-.241.659q-.026,7.862-.008,15.724a1.982,1.982,0,0,0,.312,1.042c1.434,2.125,2.9,4.226,4.246,6.174h7.33c1.415-8.386-1.69-15.867-3.6-23.6Zm-3.1.063H61.22l-1.84,14.258H69.3Zm-21.971-3.017a3,3,0,0,0-3.038-3.282,3.193,3.193,0,0,0-3.222,3.182,3.286,3.286,0,0,0,3.037,3.207A3.04,3.04,0,0,0,47.334,195.257ZM103.766,216.9l.258-.48-5.887-4.257-.463.258c.133.5.114,1.28.422,1.449C99.97,214.9,101.473,216.79,103.766,216.9Zm2.372.991-.41.48c1.284,1.666,3.283,2.324,4.9,3.52l.326-.446Z" transform="translate(-26.024 -189.76)" fill="#514b4d"/>
        <path id="Path_7758" data-name="Path 7758" d="M250.609,468.557c1.87,1.089,2.755,1.015,3.832-1.351h5.172c1.322,2.574,1.838,2.285,3.861,1.409,1.047,1.032,2.206,2.093,3.246,3.258a1.5,1.5,0,0,1,.105,1.354,1.5,1.5,0,0,0,.9,2.373,1.741,1.741,0,0,1,1.182,1.92q-.014,1.233,0,2.466a1.684,1.684,0,0,1-1.2,1.887,1.526,1.526,0,0,0-.912,2.378,1.733,1.733,0,0,1-.2,1.5c-.877,1.153-1.894,2.2-2.7,3.113-2.986-.851-3.076-.816-4.3,1.444h-4.869l-2.144-2.277-2.021.9c-1.034-1.019-2.133-1.975-3.052-3.08a2.167,2.167,0,0,1-.226-1.708,1.726,1.726,0,0,0-1.112-2.386,1.8,1.8,0,0,1-.946-1.2,14.781,14.781,0,0,1,.011-3.591,2.16,2.16,0,0,1,1.113-1.3c.949-.488,1.383-1.276,1-2.113a1.859,1.859,0,0,1,.644-2.468C248.876,470.277,249.713,469.427,250.609,468.557Zm12.555,10.264c.345-2.825-2.309-6.276-6.177-6.258a6.284,6.284,0,0,0-6.216,6.124,6.366,6.366,0,0,0,6.273,6.288A6.146,6.146,0,0,0,263.164,478.821Z" transform="translate(-222.941 -438.382)" fill="#514b4d"/>
        <path id="Path_7760" data-name="Path 7760" d="M185.5,223.688a2.05,2.05,0,0,1,1.96-2.115,2.1,2.1,0,0,1,2.119,2.163,2.125,2.125,0,0,1-2.069,2.036A2.1,2.1,0,0,1,185.5,223.688Z" transform="translate(-168.934 -218.267)" fill="#514b4d"/>
        <path id="Path_7761" data-name="Path 7761" d="M323.417,547.219a4.082,4.082,0,1,1,4.215-4A4.073,4.073,0,0,1,323.417,547.219Z" transform="translate(-289.445 -502.772)" fill="#514b4d"/>
        <path id="Subtraction_18" data-name="Subtraction 18" d="M8.1,16.207A8.106,8.106,0,0,1,4.949.637,8.106,8.106,0,0,1,11.258,15.57,8.052,8.052,0,0,1,8.1,16.207Zm0-13.045A4.941,4.941,0,1,0,13.045,8.1,4.947,4.947,0,0,0,8.1,3.162Z" transform="translate(64.442 35.14)" fill="#514b4d"/>
        <ellipse id="Ellipse_1709" data-name="Ellipse 1709" cx="3.221" cy="3.221" rx="3.221" ry="3.221" transform="translate(69.372 40.023)" fill="#514b4d"/>
      </g>
    </g>
  </g>
</svg>
