<svg xmlns="http://www.w3.org/2000/svg" width="40" height="40" viewBox="0 0 40 40">
  <g id="in" transform="translate(-61 -533)">
    <g id="Ellipse_1676" data-name="Ellipse 1676" transform="translate(61 533)" fill="none" stroke="#fff" stroke-width="1.5">
      <circle cx="20" cy="20" r="20" stroke="none"/>
      <circle cx="20" cy="20" r="19.25" fill="none"/>
    </g>
    <path id="Icon_awesome-linkedin-in" data-name="Icon awesome-linkedin-in" d="M3.646,16.289H.269V5.414H3.646ZM1.956,3.931A1.965,1.965,0,1,1,3.912,1.956,1.972,1.972,0,0,1,1.956,3.931Zm14.33,12.359h-3.37V11c0-1.262-.025-2.88-1.756-2.88C9.4,8.116,9.135,9.487,9.135,10.9v5.385H5.762V5.414H9V6.9h.047a3.548,3.548,0,0,1,3.2-1.756c3.418,0,4.046,2.251,4.046,5.174v5.974Z" transform="translate(73 544.999)" fill="#fff"/>
  </g>
</svg>
