<svg id="Material_" data-name="Material " xmlns="http://www.w3.org/2000/svg" width="76.695" height="76.899" viewBox="0 0 76.695 76.899">
  <rect id="Rectangle_1960" data-name="Rectangle 1960" width="76.696" height="76.696" transform="translate(0 0.203)" fill="none"/>
  <g id="Group_6165" data-name="Group 6165" transform="translate(2.953 0)">
    <g id="Group_4713" data-name="Group 4713">
      <path id="Path_7763" data-name="Path 7763" d="M126.61,105.345a6.246,6.246,0,0,1,5.157-1.964c2.479.074,4.97.152,7.44-.013a10.7,10.7,0,0,1,9.731,4.736c1.977,2.657,3.575,5.594,5.433,8.344a5.463,5.463,0,0,0,2,1.758c2.159,1.077,4.427,1.937,6.577,3.029a2.015,2.015,0,0,1,.777,1.654c-.158,1.49-.563,2.954-.93,4.713-2.356-5.192-6.154-7.383-10.549-6.334-4.436,1.06-6.666,4.623-6.486,10.437H130.278c.382-3.518-.4-6.562-3.234-8.8a8.617,8.617,0,0,0-6.318-1.786,8.789,8.789,0,0,0-7.487,10.515c-2.561-.721-3.444-1.8-3.457-4.409-.028-5.375,0-10.75-.018-16.124-.006-1.693.575-2.8,2.4-3.1.481-.081.982-.66,1.281-1.133q10.581-16.723,21.117-33.475c1.545-2.451,1.586-2.455,4.111-1.05,1.352-1.484,2.662-3.042,4.118-4.448a2.871,2.871,0,0,1,2-.708c4.25.358,8.489.834,12.879,1.287l.226-3.209,2.725-.284V60.376h2.51c.033.653.09,1.252.091,1.851.008,5.488.046,10.976-.021,16.463-.017,1.411.472,1.76,1.831,1.891,5.253.509,10.49,1.189,15.9,1.824l.135,1.748H160.762l-.212-2.872-2.728-.162V74.634c-2.743.8-5.292,1.41-7.729,2.318a3.137,3.137,0,0,1-3.885-.835,16.356,16.356,0,0,0-1.651-1.4l-1.218.918c1.552,1.026,1.255,2.055.4,3.337-5.481,8.207-10.9,16.457-16.329,24.7-.334.507-.582,1.07-.87,1.607l-3.754,5.285,3.289.784Zm26.245,11.787c-1.889-2.782-3.509-5.253-5.215-7.662-2.681-3.784-6.4-4.816-10.811-3.936v11.6Zm-18.113-11.793c-1.6,0-2.95-.067-4.287.019-1.387.089-2.331.723-2.3,2.324.044,2.256.015,4.513.078,6.768.01.363.272.978.517,1.034,1.973.451,3.969.8,5.992,1.178Z" transform="translate(-109.762 -60.376)" fill="#514b4d"/>
      <path id="Path_7764" data-name="Path 7764" d="M164.336,747.152a7.564,7.564,0,0,1-7.7-7.5,7.8,7.8,0,0,1,7.711-7.763,7.714,7.714,0,0,1,7.578,7.7A7.429,7.429,0,0,1,164.336,747.152Zm4.555-7.485a4.633,4.633,0,0,0-4.5-4.722,4.794,4.794,0,0,0-4.734,4.551,4.612,4.612,0,0,0,4.557,4.667A4.5,4.5,0,0,0,168.891,739.667Z" transform="translate(-152.334 -670.265)" fill="#514b4d"/>
      <path id="Path_7765" data-name="Path 7765" d="M518.913,747.116a7.568,7.568,0,0,1-7.628-7.563,7.65,7.65,0,1,1,15.3.064A7.473,7.473,0,0,1,518.913,747.116Zm4.59-7.54a4.556,4.556,0,0,0-4.52-4.672,4.8,4.8,0,0,0-4.7,4.595,4.687,4.687,0,0,0,4.619,4.634A4.471,4.471,0,0,0,523.5,739.576Z" transform="translate(-474.44 -670.224)" fill="#514b4d"/>
      <path id="Path_7766" data-name="Path 7766" d="M214.1,786.271a2.97,2.97,0,0,1-2.844,3.108,3.03,3.03,0,0,1-2.982-3.012,2.956,2.956,0,0,1,2.967-2.991A2.867,2.867,0,0,1,214.1,786.271Z" transform="translate(-199.236 -717.031)" fill="#514b4d"/>
      <path id="Path_7767" data-name="Path 7767" d="M568.218,786.245a2.985,2.985,0,0,1-5.968.17,2.985,2.985,0,1,1,5.968-.17Z" transform="translate(-520.725 -716.964)" fill="#514b4d"/>
    </g>
  </g>
</svg>
