<svg xmlns="http://www.w3.org/2000/svg" width="100" height="100" viewBox="0 0 100 100">
  <g id="material_lift_Drk" data-name="material lift Drk" transform="translate(-6277.826 -6034.826)">
    <rect id="Rectangle_486" data-name="Rectangle 486" width="100" height="100" transform="translate(6277.826 6034.826)" fill="none"/>
    <g id="Group_4715" data-name="Group 4715" transform="translate(6281.737 6035)">
      <g id="Group_4713" data-name="Group 4713" transform="translate(0 0)">
        <path id="Path_7763" data-name="Path 7763" d="M131.6,118.655a8.094,8.094,0,0,1,6.684-2.545c3.212.1,6.441.2,9.642-.017,5.43-.363,9.534,2,12.612,6.137,2.562,3.443,4.633,7.25,7.041,10.814a7.08,7.08,0,0,0,2.593,2.279c2.8,1.4,5.737,2.51,8.524,3.926a2.612,2.612,0,0,1,1.007,2.143c-.2,1.931-.73,3.828-1.206,6.108-3.053-6.729-7.976-9.569-13.671-8.208-5.749,1.373-8.639,5.992-8.406,13.526H136.35c.494-4.56-.514-8.5-4.192-11.4a11.168,11.168,0,0,0-8.188-2.315,11.39,11.39,0,0,0-9.7,13.627c-3.319-.935-4.463-2.328-4.481-5.714-.036-6.965,0-13.931-.024-20.9-.008-2.194.745-3.623,3.113-4.019.624-.1,1.272-.856,1.66-1.469Q128.249,98.955,141.9,77.244c2-3.176,2.056-3.181,5.327-1.36,1.753-1.923,3.45-3.942,5.337-5.765a3.721,3.721,0,0,1,2.592-.917c5.508.464,11,1.081,16.691,1.668l.293-4.158,3.532-.368V60.376h3.253c.043.846.117,1.622.118,2.4.01,7.112.06,14.225-.027,21.336-.022,1.828.611,2.28,2.372,2.451,6.808.66,13.595,1.541,20.607,2.364l.175,2.266H175.857c-.087-1.18-.176-2.387-.274-3.723l-3.535-.21V78.854c-3.554,1.043-6.858,1.828-10.017,3-2.077.773-3.59.516-5.035-1.082a21.194,21.194,0,0,0-2.14-1.81l-1.578,1.189c2.011,1.33,1.627,2.663.516,4.325-7.1,10.636-14.126,21.327-21.162,32.009-.432.657-.755,1.386-1.128,2.082l-4.866,6.849,4.263,1.016Zm34.013,15.275c-2.448-3.605-4.547-6.808-6.759-9.93-3.475-4.9-8.291-6.242-14.011-5.1v15.031Zm-23.474-15.283c-2.077,0-3.823-.087-5.556.024-1.8.115-3.021.937-2.981,3.012.057,2.924.02,5.849.1,8.772.013.47.352,1.267.67,1.34,2.556.584,5.144,1.03,7.766,1.527Z" transform="translate(-109.762 -60.376)" fill="#c8c8c8"/>
        <path id="Path_7764" data-name="Path 7764" d="M166.615,751.671a9.8,9.8,0,0,1-9.98-9.725,10.108,10.108,0,0,1,9.994-10.061,10,10,0,0,1,9.821,9.981A9.628,9.628,0,0,1,166.615,751.671Zm5.9-9.7a6,6,0,0,0-5.833-6.119,6.213,6.213,0,0,0-6.136,5.9,5.977,5.977,0,0,0,5.906,6.048A5.834,5.834,0,0,0,172.518,741.971Z" transform="translate(-151.06 -652.026)" fill="#c8c8c8"/>
        <path id="Path_7765" data-name="Path 7765" d="M521.171,751.637a9.808,9.808,0,0,1-9.885-9.8,9.914,9.914,0,1,1,19.827.082A9.686,9.686,0,0,1,521.171,751.637Zm5.948-9.772a5.9,5.9,0,0,0-5.858-6.055,6.225,6.225,0,0,0-6.088,5.955,6.074,6.074,0,0,0,5.986,6.006A5.8,5.8,0,0,0,527.119,741.865Z" transform="translate(-463.535 -651.987)" fill="#c8c8c8"/>
        <path id="Path_7766" data-name="Path 7766" d="M215.825,787.128a3.849,3.849,0,0,1-3.685,4.028,3.927,3.927,0,0,1-3.864-3.9,3.831,3.831,0,0,1,3.845-3.877A3.716,3.716,0,0,1,215.825,787.128Z" transform="translate(-196.56 -697.394)" fill="#c8c8c8"/>
        <path id="Path_7767" data-name="Path 7767" d="M569.985,787.115a3.869,3.869,0,0,1-7.734.221,3.869,3.869,0,1,1,7.734-.221Z" transform="translate(-508.435 -697.329)" fill="#c8c8c8"/>
      </g>
    </g>
  </g>
</svg>
