<svg id="Other" xmlns="http://www.w3.org/2000/svg" width="77.102" height="76.899" viewBox="0 0 77.102 76.899">
  <rect id="Rectangle_1962" data-name="Rectangle 1962" width="76.696" height="76.696" transform="translate(0.406 0.203)" fill="none"/>
  <g id="Group_4719" data-name="Group 4719">
    <path id="Subtraction_24" data-name="Subtraction 24" d="M17.307,42.925a1.338,1.338,0,0,1-.685-.191,1.092,1.092,0,0,1-.376-.394,1.635,1.635,0,0,1-.19-.732c-.066-1.391-.045-1.825-.044-1.829h0a9.117,9.117,0,0,1-1.359-.27,6.65,6.65,0,0,1-1.161-.435,3.355,3.355,0,0,1-1-.722h0c-.038,0-1.291,1.34-1.434,1.493l0,0a1.8,1.8,0,0,1-.822.213,1.36,1.36,0,0,1-1.043-.48c-.755-.839-5.378-5.586-5.9-6.125l-.01-.01a1.162,1.162,0,0,1-.223-.488.967.967,0,0,1,.035-.5,1.366,1.366,0,0,1,.411-.573,7.54,7.54,0,0,0,1.2-1.249h0a8.827,8.827,0,0,1-.643-1.062,8.995,8.995,0,0,1-.495-1.131,6.617,6.617,0,0,1-.334-1.354L.952,26.905A.688.688,0,0,1,.5,26.663a1.736,1.736,0,0,1-.381-.776,5.626,5.626,0,0,1-.106-1.659c.154-2.645.178-7.028.178-7.072.063-.026,6.315-2.567,6.626-2.923.025-.029.059-.064.1-.108.462-.477,1.689-1.743.523-4.443h0c.1,0,2.129-2.1,2.36-2.341l0,0a4.74,4.74,0,0,0,.667.333A4.159,4.159,0,0,0,12,8.006a2.315,2.315,0,0,0,1.531-.532,1.407,1.407,0,0,0,.275-.246,6.268,6.268,0,0,0,.637-.8,12.741,12.741,0,0,0,1.631-3.639C16.1,2.789,17.106.114,17.149,0h8.589A1.653,1.653,0,0,1,26.4.312a1.607,1.607,0,0,1,.452.554,2.138,2.138,0,0,1,.206.963h0c.021.021,0,1.413,0,1.427h0a11.767,11.767,0,0,1,1.5.349,6.685,6.685,0,0,1,1.179.47,2.194,2.194,0,0,1,.842.7c0-.022,1.391-1.259,1.405-1.271a1.868,1.868,0,0,1,.305-.157,2,2,0,0,1,.75-.157,1.634,1.634,0,0,1,1.221.559c1.018,1.084,5.245,5.268,5.287,5.31a3.791,3.791,0,0,1,.351.9,1.943,1.943,0,0,1,.044.772,1.031,1.031,0,0,1-.4.667,4.935,4.935,0,0,0-1.093.982,8.848,8.848,0,0,1,.667,1.129,7.948,7.948,0,0,1,.472,1.158A5.1,5.1,0,0,1,39.838,16a18.885,18.885,0,0,0,1.918.067,1.53,1.53,0,0,1,.644.212,1.237,1.237,0,0,1,.438.447,1.617,1.617,0,0,1,.189.836c-.022,1.417,0,8.23,0,8.3a1.917,1.917,0,0,1-.251.614,1.368,1.368,0,0,1-.412.422,1.256,1.256,0,0,1-.689.192h-.031c-.339-.006-.658-.01-.948-.01-.489,0-.742.009-.769.01h0a7.4,7.4,0,0,1-.251,1.3,6.11,6.11,0,0,1-.446,1.141,3.737,3.737,0,0,1-.776,1.043c.023.023,1.3,1.392,1.316,1.405a2.04,2.04,0,0,1,.276.633,1.36,1.36,0,0,1,.016.6,1.185,1.185,0,0,1-.359.619c-.744.7-5.194,5.021-6.079,5.879l-.034.033a2.445,2.445,0,0,1-.819.145,1.813,1.813,0,0,1-.7-.132,1.593,1.593,0,0,1-.666-.526,6.473,6.473,0,0,0-.736-.923h0s0,.007,0,.007a4.509,4.509,0,0,1-.9.653,6.3,6.3,0,0,1-1.111.5,6.879,6.879,0,0,1-1.533.324c-.044,0-.066,1.922-.067,1.941a1.81,1.81,0,0,1-.215.6,1.245,1.245,0,0,1-.378.414,1.156,1.156,0,0,1-.656.188h-8.5ZM21.613,9.966a11.789,11.789,0,0,0-2.357.238,11.629,11.629,0,0,0-4.181,1.759,11.752,11.752,0,0,0-3.158,3.158,11.677,11.677,0,0,0,0,13.075,11.753,11.753,0,0,0,3.158,3.158,11.677,11.677,0,0,0,13.075,0,11.726,11.726,0,0,0,4.236-5.144,11.627,11.627,0,0,0,.681-2.195,11.8,11.8,0,0,0,0-4.713,11.628,11.628,0,0,0-1.759-4.181,11.752,11.752,0,0,0-3.158-3.158A11.629,11.629,0,0,0,23.969,10.2,11.783,11.783,0,0,0,21.613,9.966Zm-.065,19.251a7.559,7.559,0,1,1,7.559-7.559A7.567,7.567,0,0,1,21.548,29.217Z" transform="translate(33.506 33.629)" fill="#514b4d"/>
    <path id="Path_7791" data-name="Path 7791" d="M245-12807.019a1.591,1.591,0,0,1-.6-.117l-9.071-3.589a1.619,1.619,0,0,1-.9-.87,1.621,1.621,0,0,1-.02-1.25l.816-2.064a22.626,22.626,0,0,1-3.274-3.2l-2,.819a1.6,1.6,0,0,1-.62.124,1.642,1.642,0,0,1-.9-.271,1.63,1.63,0,0,1-.612-.744l-3.7-9.025a1.622,1.622,0,0,1,0-1.25,1.624,1.624,0,0,1,.887-.881l1.854-.763a22.906,22.906,0,0,1-.13-2.433c0-.721.034-1.449.1-2.163l-1.627-.6a1.621,1.621,0,0,1-.918-.85,1.624,1.624,0,0,1-.049-1.25l3.381-9.151a1.621,1.621,0,0,1,.609-.781,1.631,1.631,0,0,1,.925-.286,1.631,1.631,0,0,1,.566.1l2.062.76a22.744,22.744,0,0,1,3.314-3.3l-.806-2.021a1.618,1.618,0,0,1,.017-1.249,1.628,1.628,0,0,1,.9-.875l9.062-3.611a1.649,1.649,0,0,1,.6-.115,1.64,1.64,0,0,1,.907.273,1.642,1.642,0,0,1,.611.754l.769,1.931c.7-.063,1.405-.1,2.107-.1a22.528,22.528,0,0,1,2.381.127l.859-2.053a1.638,1.638,0,0,1,.613-.737,1.632,1.632,0,0,1,.9-.266,1.615,1.615,0,0,1,.63.127l9,3.766a1.621,1.621,0,0,1,.881.89,1.621,1.621,0,0,1,0,1.25l-.872,2.083a22.749,22.749,0,0,1,3.178,3.226l2.225-.924a1.658,1.658,0,0,1,.625-.123,1.631,1.631,0,0,1,.9.267,1.628,1.628,0,0,1,.613.742l3.738,9.011a1.624,1.624,0,0,1,0,1.251,1.621,1.621,0,0,1-.884.882l-2.333.971c.061.678.092,1.366.092,2.048,0,.727-.035,1.459-.1,2.179l2.355.982a1.628,1.628,0,0,1,.883.887,1.625,1.625,0,0,1,0,1.251l-3.754,9a1.624,1.624,0,0,1-.613.739,1.643,1.643,0,0,1-.9.267,1.6,1.6,0,0,1-.628-.127l-2.3-.957a22.679,22.679,0,0,1-3.031,3.069l.917,2.193a1.626,1.626,0,0,1,0,1.252,1.621,1.621,0,0,1-.882.887l-9,3.76a1.608,1.608,0,0,1-.629.127h0a1.632,1.632,0,0,1-.9-.266,1.631,1.631,0,0,1-.613-.739l-.881-2.106a23.042,23.042,0,0,1-2.466.132c-.647,0-1.3-.027-1.943-.083l-.8,2.032a1.627,1.627,0,0,1-.611.757A1.641,1.641,0,0,1,245-12807.019Zm4.5-38.856a13.615,13.615,0,0,0-2.717.273,13.348,13.348,0,0,0-2.531.787,13.384,13.384,0,0,0-2.291,1.242,13.607,13.607,0,0,0-2,1.647,13.516,13.516,0,0,0-1.646,2,13.476,13.476,0,0,0-1.243,2.289,13.441,13.441,0,0,0-.786,2.532,13.579,13.579,0,0,0-.274,2.718,13.591,13.591,0,0,0,.274,2.717,13.372,13.372,0,0,0,.786,2.529,13.36,13.36,0,0,0,1.243,2.292,13.547,13.547,0,0,0,1.646,2,13.533,13.533,0,0,0,2,1.647,13.519,13.519,0,0,0,2.291,1.242,13.51,13.51,0,0,0,2.531.787,13.6,13.6,0,0,0,2.717.274,13.6,13.6,0,0,0,2.718-.274,13.51,13.51,0,0,0,2.531-.787,13.4,13.4,0,0,0,2.291-1.242,13.506,13.506,0,0,0,2-1.647,13.556,13.556,0,0,0,1.647-2,13.375,13.375,0,0,0,1.243-2.292,13.337,13.337,0,0,0,.786-2.529,13.62,13.62,0,0,0,.274-2.717,13.587,13.587,0,0,0-.274-2.718,13.4,13.4,0,0,0-.786-2.532,13.471,13.471,0,0,0-1.243-2.289,13.45,13.45,0,0,0-1.647-2,13.648,13.648,0,0,0-2-1.647,13.322,13.322,0,0,0-2.291-1.242,13.348,13.348,0,0,0-2.531-.787A13.617,13.617,0,0,0,249.506-12845.875Zm-.007,22.326a8.858,8.858,0,0,1-8.848-8.85,8.857,8.857,0,0,1,8.848-8.846,8.857,8.857,0,0,1,8.848,8.846A8.858,8.858,0,0,1,249.5-12823.549Z" transform="translate(-223.995 12858)" fill="#514b4d"/>
  </g>
</svg>
