<svg xmlns="http://www.w3.org/2000/svg" width="100" height="100" viewBox="0 0 100 100">
  <g id="other_Drk" data-name="other Drk" transform="translate(-6395.635 -6157.635)">
    <rect id="Rectangle_493" data-name="Rectangle 493" width="100" height="100" transform="translate(6395.635 6157.635)" fill="none"/>
    <g id="Group_4719" data-name="Group 4719" transform="translate(6397.241 6159.241)">
      <path id="Subtraction_24" data-name="Subtraction 24" d="M22,54.564a1.7,1.7,0,0,1-.871-.243,1.388,1.388,0,0,1-.478-.5,2.078,2.078,0,0,1-.241-.931c-.084-1.768-.057-2.32-.056-2.325h0a11.589,11.589,0,0,1-1.728-.344,8.454,8.454,0,0,1-1.476-.553,4.265,4.265,0,0,1-1.274-.918h0c-.048,0-1.641,1.7-1.822,1.9l0,0a2.293,2.293,0,0,1-1.045.27,1.728,1.728,0,0,1-1.326-.611c-.96-1.067-6.836-7.1-7.5-7.786L4.16,42.51a1.477,1.477,0,0,1-.284-.62,1.229,1.229,0,0,1,.044-.636,1.736,1.736,0,0,1,.523-.729,9.584,9.584,0,0,0,1.532-1.588h0a11.219,11.219,0,0,1-.818-1.35,11.434,11.434,0,0,1-.629-1.437A8.411,8.411,0,0,1,4.1,34.427L1.21,34.2a.874.874,0,0,1-.571-.308,2.207,2.207,0,0,1-.485-.986A7.152,7.152,0,0,1,.019,30.8c.2-3.362.226-8.934.227-8.99.08-.032,8.027-3.263,8.423-3.715.032-.037.076-.082.129-.137.587-.606,2.147-2.215.665-5.648h0c.129,0,2.707-2.671,3-2.975l0,0a6.025,6.025,0,0,0,.848.423,5.287,5.287,0,0,0,1.942.423A2.943,2.943,0,0,0,17.2,9.5a1.789,1.789,0,0,0,.35-.312,7.968,7.968,0,0,0,.81-1.017,16.2,16.2,0,0,0,2.074-4.626c.028,0,1.307-3.4,1.361-3.545H32.717a2.1,2.1,0,0,1,.837.4,2.043,2.043,0,0,1,.575.7,2.718,2.718,0,0,1,.261,1.225h0c.027.027,0,1.8,0,1.814h0a14.958,14.958,0,0,1,1.91.443,8.5,8.5,0,0,1,1.5.6,2.789,2.789,0,0,1,1.071.887c0-.028,1.769-1.6,1.786-1.616a2.374,2.374,0,0,1,.388-.2,2.547,2.547,0,0,1,.953-.2,2.078,2.078,0,0,1,1.552.71c1.294,1.378,6.667,6.7,6.721,6.749a4.818,4.818,0,0,1,.447,1.149,2.47,2.47,0,0,1,.056.981,1.311,1.311,0,0,1-.5.848,6.272,6.272,0,0,0-1.39,1.248,11.247,11.247,0,0,1,.847,1.436,10.1,10.1,0,0,1,.6,1.471,6.487,6.487,0,0,1,.311,1.687,24.006,24.006,0,0,0,2.439.085,1.945,1.945,0,0,1,.819.269,1.573,1.573,0,0,1,.557.568,2.055,2.055,0,0,1,.241,1.063c-.028,1.8,0,10.462,0,10.549a2.437,2.437,0,0,1-.32.78,1.739,1.739,0,0,1-.524.536,1.6,1.6,0,0,1-.876.244h-.039c-.43-.008-.836-.012-1.205-.012-.622,0-.943.012-.978.013h0a9.4,9.4,0,0,1-.319,1.647,7.767,7.767,0,0,1-.566,1.45,4.75,4.75,0,0,1-.986,1.325c.029.029,1.658,1.77,1.673,1.786a2.593,2.593,0,0,1,.351.8,1.729,1.729,0,0,1,.02.763,1.506,1.506,0,0,1-.456.786c-.945.894-6.6,6.382-7.727,7.473l-.043.042a3.108,3.108,0,0,1-1.041.185,2.3,2.3,0,0,1-.891-.168,2.025,2.025,0,0,1-.846-.668,8.229,8.229,0,0,0-.935-1.173h0s0,.008,0,.009a5.731,5.731,0,0,1-1.149.829,8.013,8.013,0,0,1-1.412.63,8.745,8.745,0,0,1-1.949.412c-.056,0-.084,2.443-.085,2.467a2.3,2.3,0,0,1-.273.766,1.583,1.583,0,0,1-.481.526,1.47,1.47,0,0,1-.834.239H22Zm5.474-41.9a14.986,14.986,0,0,0-3,.3,14.782,14.782,0,0,0-5.315,2.236,14.938,14.938,0,0,0-4.014,4.015,14.843,14.843,0,0,0,0,16.62,14.94,14.94,0,0,0,4.014,4.014,14.843,14.843,0,0,0,16.62,0,14.905,14.905,0,0,0,5.385-6.539,14.78,14.78,0,0,0,.866-2.79,15,15,0,0,0,0-5.991A14.78,14.78,0,0,0,39.8,19.221a14.938,14.938,0,0,0-4.014-4.015,14.782,14.782,0,0,0-5.315-2.236A14.978,14.978,0,0,0,27.473,12.668Zm-.082,24.471A9.608,9.608,0,1,1,37,27.531,9.619,9.619,0,0,1,27.391,37.139Z" transform="translate(42.59 42.747)" fill="#c8c8c8"/>
      <path id="Path_7791" data-name="Path 7791" d="M250.7-12793.2a2.052,2.052,0,0,1-.764-.146l-11.531-4.562a2.057,2.057,0,0,1-1.142-1.105,2.061,2.061,0,0,1-.025-1.589l1.038-2.625a28.74,28.74,0,0,1-4.162-4.071l-2.538,1.042a2.051,2.051,0,0,1-.788.156,2.084,2.084,0,0,1-1.145-.343,2.07,2.07,0,0,1-.779-.946l-4.709-11.473a2.062,2.062,0,0,1,.005-1.589,2.064,2.064,0,0,1,1.128-1.12l2.356-.969a29.136,29.136,0,0,1-.165-3.093c0-.916.044-1.842.13-2.749l-2.068-.765a2.065,2.065,0,0,1-1.167-1.08,2.065,2.065,0,0,1-.062-1.589l4.3-11.632a2.054,2.054,0,0,1,.774-.993,2.068,2.068,0,0,1,1.175-.365,2.067,2.067,0,0,1,.72.13l2.622.969a28.864,28.864,0,0,1,4.212-4.2l-1.024-2.57a2.06,2.06,0,0,1,.021-1.589,2.068,2.068,0,0,1,1.14-1.11l11.519-4.591a2.082,2.082,0,0,1,.769-.148,2.076,2.076,0,0,1,1.153.35,2.073,2.073,0,0,1,.777.959l.978,2.453c.885-.081,1.786-.124,2.679-.124a28.982,28.982,0,0,1,3.027.159l1.091-2.607a2.073,2.073,0,0,1,.779-.937,2.079,2.079,0,0,1,1.138-.339,2.064,2.064,0,0,1,.8.162l11.439,4.787a2.063,2.063,0,0,1,1.12,1.129,2.063,2.063,0,0,1-.006,1.59l-1.109,2.649a28.864,28.864,0,0,1,4.04,4.1l2.829-1.175a2.081,2.081,0,0,1,.795-.158,2.073,2.073,0,0,1,1.141.341,2.062,2.062,0,0,1,.779.941l4.751,11.454a2.064,2.064,0,0,1,0,1.59,2.063,2.063,0,0,1-1.124,1.124l-2.966,1.231c.078.861.117,1.737.117,2.6,0,.923-.045,1.854-.133,2.771l2.994,1.248a2.065,2.065,0,0,1,1.122,1.128,2.064,2.064,0,0,1,0,1.59l-4.772,11.444a2.062,2.062,0,0,1-.779.939,2.085,2.085,0,0,1-1.14.341,2.067,2.067,0,0,1-.8-.161l-2.918-1.217a28.917,28.917,0,0,1-3.852,3.9l1.165,2.788a2.067,2.067,0,0,1,0,1.592,2.065,2.065,0,0,1-1.121,1.127l-11.442,4.78a2.072,2.072,0,0,1-.8.161h0a2.08,2.08,0,0,1-1.138-.339,2.072,2.072,0,0,1-.779-.938l-1.12-2.679a29.139,29.139,0,0,1-3.134.169c-.822,0-1.654-.035-2.47-.105l-1.021,2.581a2.064,2.064,0,0,1-.777.963A2.076,2.076,0,0,1,250.7-12793.2Zm5.726-49.39a17.266,17.266,0,0,0-3.454.348,17.011,17.011,0,0,0-3.217,1,17.07,17.07,0,0,0-2.912,1.58,17.241,17.241,0,0,0-2.537,2.093,17.3,17.3,0,0,0-2.093,2.536,17.15,17.15,0,0,0-1.58,2.912,17.048,17.048,0,0,0-1,3.217,17.275,17.275,0,0,0-.348,3.455,17.282,17.282,0,0,0,.348,3.455,17.088,17.088,0,0,0,1,3.216,17.1,17.1,0,0,0,1.58,2.912,17.288,17.288,0,0,0,2.093,2.537,17.367,17.367,0,0,0,2.537,2.093,17.2,17.2,0,0,0,2.912,1.58,17.1,17.1,0,0,0,3.217,1,17.313,17.313,0,0,0,3.454.349,17.315,17.315,0,0,0,3.455-.349,17.1,17.1,0,0,0,3.217-1,17.088,17.088,0,0,0,2.912-1.58,17.33,17.33,0,0,0,2.537-2.093,17.253,17.253,0,0,0,2.093-2.537,17.1,17.1,0,0,0,1.58-2.912,17,17,0,0,0,1-3.216,17.306,17.306,0,0,0,.348-3.455,17.292,17.292,0,0,0-.348-3.455,17.006,17.006,0,0,0-1-3.217,17.127,17.127,0,0,0-1.58-2.912,17.266,17.266,0,0,0-2.093-2.536,17.29,17.29,0,0,0-2.537-2.093,16.956,16.956,0,0,0-2.912-1.58,17.011,17.011,0,0,0-3.217-1A17.268,17.268,0,0,0,256.423-12842.586Zm-.008,28.38a11.261,11.261,0,0,1-11.248-11.248,11.26,11.26,0,0,1,11.248-11.246,11.259,11.259,0,0,1,11.247,11.246A11.26,11.26,0,0,1,256.415-12814.206Z" transform="translate(-223.995 12858)" fill="#c8c8c8"/>
    </g>
  </g>
</svg>
