<svg id="Power" xmlns="http://www.w3.org/2000/svg" width="77.103" height="76.696" viewBox="0 0 77.103 76.696">
  <rect id="Rectangle_1956" data-name="Rectangle 1956" width="76.696" height="76.696" transform="translate(0 0)" fill="none"/>
  <path id="Union_18" data-name="Union 18" d="M64.546,48.06a.4.4,0,0,1-.4-.4v-1a.4.4,0,0,1,.4-.4h1.559V35.015H62.269v2.137L57.532,41.89H33.71l-1.364-2.348a8.412,8.412,0,0,0-16.634.1L14.405,41.89H4.931L2.722,37.152h0c-.033,0-.124.01-.252.01a3.223,3.223,0,0,1-1.48-.335,1.9,1.9,0,0,1-.983-1.79c-.013-2.344,0-3.876,0-3.94H62.269v.926H73.3v-.384a1,1,0,0,1,1-1h1.8a1,1,0,0,1,1,1v3.6a1,1,0,0,1-1,1H74.3a1,1,0,0,1-1-1v-.229H68.1V46.258h1.653a.4.4,0,0,1,.4.4v1a.4.4,0,0,1-.4.4ZM21.23,47.494a7.239,7.239,0,1,1,2.806.566A7.193,7.193,0,0,1,21.23,47.494Zm-1.589-6.643a4.4,4.4,0,1,0,4.4-4.4A4.4,4.4,0,0,0,19.641,40.851Zm1.592,0a2.8,2.8,0,1,1,2.8,2.8A2.8,2.8,0,0,1,21.233,40.851ZM62.484,30.038H.006V5.006A5,5,0,0,1,5.013,0H57.478a5,5,0,0,1,5.006,5.006V30.038h0ZM5.013,6.408V23.429a1.6,1.6,0,0,0,1.6,1.6H17.428a1.6,1.6,0,0,0,1.6-1.6V6.408a1.6,1.6,0,0,0-1.6-1.6H6.615A1.6,1.6,0,0,0,5.013,6.408Zm19.224,8.611A6.608,6.608,0,1,0,30.845,8.41,6.616,6.616,0,0,0,24.236,15.019Zm25.232-2a4.005,4.005,0,1,0,4.005-4A4.01,4.01,0,0,0,49.468,13.016Zm-9.612,0a4.005,4.005,0,1,0,4-4A4.009,4.009,0,0,0,39.856,13.016ZM6.814,24.03a.8.8,0,0,1-.8-.8v-2.6H18.028v2.6a.8.8,0,0,1-.8.8Zm18.624-9.011a5.407,5.407,0,1,1,5.407,5.406A5.407,5.407,0,0,1,25.438,15.019ZM6.013,19.624V15.419H18.028v4.205Zm44.256-6.608a3.2,3.2,0,1,1,3.2,3.2A3.2,3.2,0,0,1,50.269,13.016Zm-9.612,0a3.2,3.2,0,1,1,3.2,3.2A3.2,3.2,0,0,1,40.657,13.016Zm-34.644,1.4V10.213H18.028v4.205Zm0-5.207v-2.6a.8.8,0,0,1,.8-.8H17.227a.8.8,0,0,1,.8.8v2.6Z" transform="translate(0 14.253)" fill="#514b4d"/>
</svg>
