<svg xmlns="http://www.w3.org/2000/svg" width="100" height="100" viewBox="0 0 100 100">
  <g id="power_Drk" data-name="power Drk" transform="translate(-6513.842 -6034.842)">
    <rect id="Rectangle_489" data-name="Rectangle 489" width="100" height="100" transform="translate(6513.842 6034.842)" fill="none"/>
    <path id="Union_18" data-name="Union 18" d="M84.024,59.657a.5.5,0,0,1-.5-.5V57.917a.5.5,0,0,1,.5-.5H85.96V43.464H77.295v2.653L71.414,52H41.844L40.15,49.083a10.441,10.441,0,0,0-20.648.123L17.881,52H6.12L3.379,46.116h0c-.041,0-.154.012-.313.012a4,4,0,0,1-1.836-.415,2.35,2.35,0,0,1-1.22-2.222c-.016-2.91,0-4.811,0-4.891H77.295V39.75H94.961v-.476A1.243,1.243,0,0,1,96.2,38.031h2.237a1.243,1.243,0,0,1,1.243,1.243v4.474a1.243,1.243,0,0,1-1.243,1.243H96.2a1.243,1.243,0,0,1-1.243-1.243v-.285H88.435V57.42h2.052a.5.5,0,0,1,.5.5V59.16a.5.5,0,0,1-.5.5Zm-57.672-.7a8.977,8.977,0,1,1,3.483.7A8.917,8.917,0,0,1,26.353,58.954Zm-1.973-8.245a5.456,5.456,0,1,0,5.456-5.456A5.462,5.462,0,0,0,24.379,50.709Zm1.976,0a3.48,3.48,0,1,1,3.48,3.48A3.48,3.48,0,0,1,26.356,50.709ZM77.562,37.286H.007V6.214A6.209,6.209,0,0,1,6.222,0H71.347a6.209,6.209,0,0,1,6.214,6.214V37.286h0ZM6.222,7.954V29.083A1.991,1.991,0,0,0,8.21,31.071H21.633a1.991,1.991,0,0,0,1.989-1.989V7.954a1.991,1.991,0,0,0-1.989-1.989H8.21A1.991,1.991,0,0,0,6.222,7.954ZM30.084,18.643a8.2,8.2,0,1,0,8.2-8.2A8.212,8.212,0,0,0,30.084,18.643ZM61.4,16.157a4.971,4.971,0,1,0,4.972-4.971A4.977,4.977,0,0,0,61.4,16.157Zm-11.931,0a4.971,4.971,0,1,0,4.971-4.971A4.977,4.977,0,0,0,49.473,16.157ZM8.459,29.828a.994.994,0,0,1-.994-.994V25.6H22.379v3.232a.994.994,0,0,1-.994.994ZM31.576,18.643a6.711,6.711,0,1,1,6.711,6.711A6.711,6.711,0,0,1,31.576,18.643ZM7.464,24.36V19.14H22.379v5.22Zm54.934-8.2a3.977,3.977,0,1,1,3.977,3.977A3.977,3.977,0,0,1,62.4,16.157Zm-11.931,0a3.977,3.977,0,1,1,3.977,3.977A3.977,3.977,0,0,1,50.467,16.157Zm-43,1.74v-5.22H22.379V17.9Zm0-6.463V8.2a.994.994,0,0,1,.994-.994H21.384a.994.994,0,0,1,.994.994v3.231Z" transform="translate(6514 6075.026)" fill="#c8c8c8"/>
  </g>
</svg>
