<svg id="Scissor_" data-name="Scissor " xmlns="http://www.w3.org/2000/svg" width="77.529" height="76.899" viewBox="0 0 77.529 76.899">
  <rect id="Rectangle_1957" data-name="Rectangle 1957" width="77.529" height="76.696" transform="translate(0 0.203)" fill="none"/>
  <path id="Path_7788" data-name="Path 7788" d="M45.566,76.346a6.845,6.845,0,1,1,2.656.536A6.8,6.8,0,0,1,45.566,76.346Zm-1.5-6.287A4.161,4.161,0,1,0,48.222,65.9,4.165,4.165,0,0,0,44.061,70.059ZM4.168,76.346a6.845,6.845,0,1,1,2.656.536A6.8,6.8,0,0,1,4.168,76.346Zm-1.5-6.287A4.161,4.161,0,1,0,6.824,65.9,4.166,4.166,0,0,0,2.663,70.059Zm39.076,5h0ZM41.739,75.063Zm-28.432,0a8.17,8.17,0,0,0,1.552-3.412H40.188a8.171,8.171,0,0,0,1.551,3.412H13.307Zm32.186-5a2.73,2.73,0,1,1,2.73,2.73A2.73,2.73,0,0,1,45.492,70.059Zm-41.4,0a2.73,2.73,0,1,1,2.729,2.73A2.73,2.73,0,0,1,4.094,70.059Zm30.252.683H20.7V59.368H34.347V70.741h0Zm5.713,0H35.484V59.368H54.363v5.274c-.111-.126-.229-.251-.351-.373a8.186,8.186,0,0,0-13.979,5.79c0,.227.009.456.028.68v0Zm-20.5,0H14.986v0c.018-.225.028-.454.028-.68a8.186,8.186,0,0,0-13.979-5.79c-.12.12-.238.246-.351.374V59.368H19.562V70.741Zm7.955-17.255L13.408,58.274h-9.2L3.9,57.189l17.109-6c-.151-.052-15.727-5.369-17.109-5.745a3.6,3.6,0,0,0,.383-2.434,2.722,2.722,0,0,0-.383-.95L21,35.994,3.9,30.253h12.64l10.98,3.763,10.406-3.763H51.072L34.091,35.994l.174.061c3.566,1.255,15.318,5.4,16.807,6a3.722,3.722,0,0,0-.359,2.41,3.028,3.028,0,0,0,.359.974L34.091,51.188l16.981,6-.511,1.085H41.752ZM11.811,43.718l15.673,5.554,15.608-5.554L27.484,38.164ZM.227,30.253V22.291H2.275V5.459A5.459,5.459,0,0,1,7.734,0H47.312a5.459,5.459,0,0,1,5.459,5.459V22.291h2.047v7.961Zm50.5-7.961V14.33H28.66v7.961Zm-24.339,0V14.33H4.322v7.961ZM28.66,12.283H50.724v-6.6a3.416,3.416,0,0,0-3.412-3.412H28.66ZM4.322,5.687v6.6H26.386V2.275H7.734A3.416,3.416,0,0,0,4.322,5.687Z" transform="translate(11.078)" fill="#514b4d"/>
</svg>
