<svg xmlns="http://www.w3.org/2000/svg" width="100" height="100" viewBox="0 0 100 100">
  <g id="Scissor_Mast_Lifts_Drk" data-name="Scissor &amp; Mast Lifts Drk" transform="translate(-6159.818 -6157.818)">
    <rect id="Rectangle_490" data-name="Rectangle 490" width="100" height="100" transform="translate(6159.818 6157.818)" fill="none"/>
    <path id="Path_7788" data-name="Path 7788" d="M59.051,98.94a8.871,8.871,0,1,1,3.442.7A8.815,8.815,0,0,1,59.051,98.94ZM57.1,90.792A5.392,5.392,0,1,0,62.493,85.4,5.4,5.4,0,0,0,57.1,90.792ZM5.4,98.94a8.87,8.87,0,1,1,3.442.7A8.809,8.809,0,0,1,5.4,98.94Zm-1.95-8.148A5.392,5.392,0,1,0,8.844,85.4,5.4,5.4,0,0,0,3.451,90.792Zm50.64,6.485h0ZM54.092,97.277Zm-36.847,0a10.587,10.587,0,0,0,2.011-4.422H52.081a10.589,10.589,0,0,0,2.01,4.421H17.245Zm41.711-6.485a3.537,3.537,0,1,1,3.538,3.538A3.537,3.537,0,0,1,58.956,90.792Zm-53.65,0a3.537,3.537,0,1,1,3.537,3.538A3.537,3.537,0,0,1,5.306,90.792Zm39.205.885H26.825V76.937H44.511V91.676h0Zm7.4,0H45.985V76.937H70.452v6.835c-.144-.163-.3-.326-.455-.484a10.609,10.609,0,0,0-18.116,7.5c0,.294.012.591.036.882l0,0Zm-26.565,0H19.421l0,0c.024-.292.036-.589.036-.882a10.609,10.609,0,0,0-18.116-7.5c-.156.156-.309.319-.455.484V76.937H25.351V91.676ZM35.659,69.314l-18.284,6.2H5.453l-.4-1.406,22.172-7.777c-.2-.067-20.382-6.958-22.172-7.446a4.669,4.669,0,0,0,.5-3.154,3.528,3.528,0,0,0-.5-1.231l22.172-7.859L5.049,39.206H21.43l14.23,4.876,13.485-4.876H66.187L44.181,46.646l.226.079c4.622,1.627,19.851,6.994,21.78,7.78a4.824,4.824,0,0,0-.465,3.123,3.923,3.923,0,0,0,.465,1.262L44.181,66.336l22.006,7.777-.662,1.406H54.108ZM15.307,56.656l20.311,7.2,20.227-7.2-20.227-7.2ZM.295,39.206V28.888H2.948V7.075A7.075,7.075,0,0,1,10.023,0H61.314a7.075,7.075,0,0,1,7.075,7.075V28.888h2.653V39.206ZM65.736,28.888V18.571H37.142V28.888Zm-31.541,0V18.571H5.6V28.888Zm2.948-12.97H65.736V7.37a4.427,4.427,0,0,0-4.422-4.422H37.142ZM5.6,7.37v8.549H34.194V2.948H10.023A4.427,4.427,0,0,0,5.6,7.37Z" transform="translate(6173.7 6158)" fill="#c8c8c8"/>
  </g>
</svg>
