<svg xmlns="http://www.w3.org/2000/svg" width="40" height="40" viewBox="0 0 40 40">
  <g id="twitter" transform="translate(-61 -441)">
    <g id="Ellipse_1674" data-name="Ellipse 1674" transform="translate(61 441)" fill="none" stroke="#fff" stroke-width="1.5">
      <circle cx="20" cy="20" r="20" stroke="none"/>
      <circle cx="20" cy="20" r="19.25" fill="none"/>
    </g>
    <path id="Icon_awesome-twitter" data-name="Icon awesome-twitter" d="M17.544,7.339c.012.174.012.347.012.521a11.324,11.324,0,0,1-11.4,11.4A11.325,11.325,0,0,1,0,17.463a8.29,8.29,0,0,0,.968.05A8.026,8.026,0,0,0,5.943,15.8,4.015,4.015,0,0,1,2.2,13.021a5.054,5.054,0,0,0,.757.062,4.239,4.239,0,0,0,1.055-.136A4.008,4.008,0,0,1,.794,9.014v-.05a4.036,4.036,0,0,0,1.811.509,4.014,4.014,0,0,1-1.241-5.36A11.391,11.391,0,0,0,9.628,8.306a4.524,4.524,0,0,1-.1-.918,4.011,4.011,0,0,1,6.936-2.742,7.89,7.89,0,0,0,2.543-.968,4,4,0,0,1-1.762,2.208,8.034,8.034,0,0,0,2.308-.62,8.615,8.615,0,0,1-2.01,2.072Z" transform="translate(71 449.619)" fill="#cd172b"/>
  </g>
</svg>
